# xmcd
#
# Track frame offsets:
#	150
#	21595
#	46935
#	64867
#
# Disc length: 1103 seconds
#
# Revision: 1
# Processed by: cddbd v1.4PL0 Copyright (c) Steve Scherf et al.
# Submitted via: CDmax 1.9
#
DISCID=32044d04
DTITLE=Mary J Blige - You Remind Me
DYEAR=1993
DGENRE=R&b
TTITLE0=You Remind Me (Bentley's)
TTITLE1=You Remind Me (Phat Remix)
TTITLE2=You Remind Me (Puff Daddy Remix)
TTITLE3=You Remind Me (Bad Boy Mix)
EXTD=
EXTT0=
EXTT1=
EXTT2=
EXTT3=
PLAYORDER=
